<svg id="Layer_1" data-name="Layer 1" xmlns="http://www.w3.org/2000/svg" viewBox="0 0 2000 2000"><defs><style>.cls-1{fill:#db803c;}.cls-2{fill:#b25c27;}.cls-3{fill:#f3c891;}.cls-4{fill:#131313;}.cls-5{fill:#fff;}.cls-6,.cls-7{fill:#1d1e27;}.cls-7{opacity:0.54;}</style></defs><path class="cls-1" d="M1368.48,531.23,1300.42,141a18.48,18.48,0,0,0-32.3-8.77l-165.5,195.32a204.31,204.31,0,0,1,23.81,22c39.34-48.23,87.91-95.61,142.67-142.43,34.05,114.8,56.37,234.33,68.66,357.93a617.25,617.25,0,0,0-185.7-181.27,204.82,204.82,0,0,1,23,55.92c8.09,32.79,16.42,69.58,23.57,107.43,2.21,11.74,4.3,23.59,6.25,35.45,4.53,27.61,8.21,55.25,10.52,81.87,1.9,21.9,2.86,43.06,2.6,62.92,24,20.27,43.1,47.22,55.67,78.28a280.9,280.9,0,0,1,100.3,84.7c30.51,41.65,47.71,89.46,52.82,139.32.08.78.18,1.55.25,2.32-49.54,203-199.93,366.39-395.09,434.15a670.53,670.53,0,0,1-127,29.36,619.18,619.18,0,0,1-74.51,4.51,611.58,611.58,0,0,1-394-143.07q-12.58.45-25,.55c-2.27,0-4.55,0-6.82,0-16.91,0-33.88-.8-50.41-1.93a53.93,53.93,0,0,1-11.86-.86l-.2,0v0c-.32-.06-.64-.1-1-.17-16.37-3.33-28.21-13-26.45-21.67s16.45-12.92,32.82-9.59c11.67,2.38,21,8,24.79,14.15q20.85.82,42.5.55-19.35-17.81-37.16-37.18C329.07,1246.47,245.28,1131.65,224,967.44h0l16.45,604.84c498.15,494.34,1259.44,325.94,1540.71-103.65L1418,688.8A629.42,629.42,0,0,1,1368.48,531.23Z"/><path class="cls-2" d="M590.13,336.72l-107.46-182c-11.06-18.74-39.37-14.19-44,7.08l-73,335.32A615.53,615.53,0,0,1,590.13,336.72Z"/><path class="cls-2" d="M1337.76,565c-12.29-123.6-34.61-243.13-68.66-357.93-54.76,46.82-103.33,94.2-142.67,142.43a203.88,203.88,0,0,1,25.63,34.23A617.25,617.25,0,0,1,1337.76,565Z"/><path class="cls-1" d="M373.22,738.9c27.59,128.73,65.47,128.41,82.68,120.2,11.58-5.52,24.14-8.8,37-8.2,15.93.75,35.8,5,51.67,18.57,8.57,7.33,16,17.34,21,31.08a107.22,107.22,0,0,1,5.5,23.2c5.12,40.57,66.11,31.47,132.48,8.74C787,903.89,879.07,853.7,879.07,853.7a444.3,444.3,0,0,1,52.19-32.87c15-36.06,37.65-66.67,65-89.42a201.35,201.35,0,0,1,28.28-19.69c7.78-106.23,3.62-188.72-7.07-251.22q-1.32-7.71-2.77-15c-16.79-84.75-46-129.25-72-144.43A615.09,615.09,0,0,0,266.44,649.81C284.27,633.64,342.32,594.78,373.22,738.9Zm557.67,12.49c.72.91,1.43,1.79,2.16,2.72l-36.16,42.34a73.9,73.9,0,0,1-13.41,15.71l-.35.41-.17.06a73.3,73.3,0,0,1-46.65,18l-.14,0-.47,0c-.32,0-.62,0-.94,0a73.24,73.24,0,0,1-41.51-12.83c-8.78-4.78-17.72-10.37-27.57-16-12.24-7-25.88-13.84-42.51-19L769.87,722l.2-.1a73.63,73.63,0,0,1,64.69-38.45,74.63,74.63,0,0,1,10.43.82l.14-.06C875.71,687.78,899,711,930.89,751.39ZM719,690.77l13.42-18.08,20.48-27.6c5.93-8,21.29-15.6,31.24-15.47l34.36.46,22.52.3c12.76.16,7.26,12.37-9.27,20.55L786.33,673.4l-45.39,22.47C724.41,704.05,711.37,701,719,690.77ZM487.54,551.91l19,12.05,29,18.39c8.41,5.33,17.12,20.08,17.72,30l2.08,34.31,1.36,22.48c.77,12.74-11.81,8.15-21.18-7.73L509.82,617.8l-25.75-43.61C474.7,558.31,476.75,545.08,487.54,551.91ZM442,605.11a73.63,73.63,0,1,1-73.62,73.63A73.64,73.64,0,0,1,442,605.11Z"/><path class="cls-3" d="M1286.78,940.32c-21.33,119.84-121.69,202.21-224.18,184l-.51-.1c-125.24,126.22-391.91,224.39-625.63,232.74a611.58,611.58,0,0,0,394,143.07,619.18,619.18,0,0,0,74.51-4.51,670.53,670.53,0,0,0,127-29.36c195.16-67.76,345.55-231.18,395.09-434.15-.07-.77-.17-1.54-.25-2.32-5.11-49.86-22.31-97.67-52.82-139.32a280.9,280.9,0,0,0-100.3-84.7,228.89,228.89,0,0,1,8.58,25.44A248.89,248.89,0,0,1,1286.78,940.32Z"/><path class="cls-3" d="M414.85,1338c111-1.47,235.87-24.56,352.85-66.08,115-40.79,210.91-95.15,272.36-153.36C950.71,1089,895.94,985.07,915.66,874.28a258.6,258.6,0,0,1,8.51-34.12c2.13-6.59,4.48-13,7.09-19.33a444.3,444.3,0,0,0-52.19,32.87S787,903.89,703.46,932.49C637.09,955.22,576.1,964.32,571,923.75a107.22,107.22,0,0,0-5.5-23.2c-5-13.74-12.38-23.75-21-31.08-15.87-13.57-35.74-17.82-51.67-18.57-12.82-.6-25.38,2.68-37,8.2-17.21,8.21-55.09,8.53-82.68-120.2-30.9-144.12-89-105.26-106.78-89.09a67.75,67.75,0,0,0-5.29,5.29c-.08.2-.17.4-.25.61-41.63,117.47-48.61,222-36.95,311.73,21.33,164.21,105.12,279,153.74,333.35Q395.47,1320.17,414.85,1338Zm162.32-263.23a6,6,0,1,1-6.44,5.6A6,6,0,0,1,577.17,1074.74Zm-16.22-48a6,6,0,1,1-6,6A6,6,0,0,1,561,1026.76Zm-15.7,35.44a6,6,0,1,1-6-6A6,6,0,0,1,545.25,1062.2Zm-2,44.88a6,6,0,1,1,.53-8.52A6,6,0,0,1,543.21,1107.08Zm-114-39.84a6,6,0,1,1-8.52-.53A6,6,0,0,1,429.23,1067.24Zm-1.33-38.13a6,6,0,1,1,6,6A6,6,0,0,1,427.9,1029.11Zm23.56,92.67a4.26,4.26,0,0,0,3.56-4.21V999.49a4.3,4.3,0,0,0-1-2.72l-39.72-48a10.46,10.46,0,0,1,.16-13.52l30.65-35.36,5.8-6.7a10.47,10.47,0,0,1,11.39-3l6.76,2.39,59.84,21.12a10.46,10.46,0,0,1,7,9.5l2,55.62a10.48,10.48,0,0,1-8.37,10.63l-60.63,12.36a4.26,4.26,0,0,0-3.42,4.18v112a4.28,4.28,0,0,0,2.32,3.79l57.16,21.51a151.52,151.52,0,0,0,72,8.64C693.31,1140,733,1126,762.23,1100.73a4.26,4.26,0,0,0,.85-1,31.1,31.1,0,0,1,5.78-7.25c7.93-7.38,17.8-9.66,22.06-5.09s1.27,14.26-6.65,21.63a31.77,31.77,0,0,1-6.94,4.91v0l-.41.17a23.37,23.37,0,0,1-2.87,1.23c-36.07,17.07-159.34,54.22-229.57,51a547.85,547.85,0,0,1-130-31.44,3.56,3.56,0,0,1,.26-7Zm51.73-87.11a6,6,0,1,1,6,6A6,6,0,0,1,503.19,1034.67Zm3.17,44.47a6,6,0,1,1-6-6A6,6,0,0,1,506.36,1079.14ZM392,1011a6,6,0,1,1-6,6A6,6,0,0,1,392,1011Z"/><path class="cls-4" d="M845.19,684.25a74.63,74.63,0,0,0-10.43-.82,73.63,73.63,0,0,0-64.69,38.45l-.2.1-46.7,60.91c16.63,5.15,30.27,12,42.51,19,9.85,5.6,18.79,11.19,27.57,16a73.24,73.24,0,0,0,41.51,12.83c.32,0,.62,0,.94,0l.47,0,.14,0a73.3,73.3,0,0,0,46.65-18l.17-.06.35-.41a73.9,73.9,0,0,0,13.41-15.71l36.16-42.34c-.73-.93-1.44-1.81-2.16-2.72C899,711,875.71,687.78,845.33,684.19Zm54.47,52.62a57.67,57.67,0,0,0-71.73-24.63,14,14,0,1,1-22.37,16.24,57.74,57.74,0,0,0,37.74,94.67A66.23,66.23,0,0,1,783,796.59a66.34,66.34,0,0,1,49.11-105.78c1.4-.09,2.8-.22,4.22-.22A66.49,66.49,0,0,1,899.66,736.87Z"/><path class="cls-4" d="M442,752.36a73.63,73.63,0,1,0-73.62-73.62A73.63,73.63,0,0,0,442,752.36Zm.59-138.54A66.46,66.46,0,0,1,507.87,668a57.79,57.79,0,0,0-75.4-30.75,14,14,0,1,1-22.29,16.49A57.72,57.72,0,0,0,441,746.67a66.43,66.43,0,0,1,1.57-132.85Z"/><path class="cls-5" d="M832.11,690.81A66.42,66.42,0,1,0,843.3,823.15a57.73,57.73,0,0,1-37.74-94.67,14,14,0,1,0,22.37-16.24,57.67,57.67,0,0,1,71.73,24.63,66.49,66.49,0,0,0-63.33-46.28C834.91,690.59,833.51,690.72,832.11,690.81Z"/><path class="cls-5" d="M441,746.67a57.72,57.72,0,0,1-30.83-92.92,14,14,0,1,0,22.29-16.49A57.79,57.79,0,0,1,507.87,668,66.44,66.44,0,1,0,441,746.67Z"/><path class="cls-6" d="M414.48,1134.88a547.85,547.85,0,0,0,130,31.44c70.23,3.21,193.5-33.94,229.57-51a23.37,23.37,0,0,0,2.87-1.23l.41-.17v0a31.77,31.77,0,0,0,6.94-4.91c7.92-7.37,10.9-17.06,6.65-21.63s-14.13-2.29-22.06,5.09a31.1,31.1,0,0,0-5.78,7.25,4.26,4.26,0,0,1-.85,1C733,1126,693.31,1140,596.87,1151.85a151.52,151.52,0,0,1-72-8.64l-57.16-21.51a4.28,4.28,0,0,1-2.32-3.79v-112a4.26,4.26,0,0,1,3.42-4.18l60.63-12.36a10.48,10.48,0,0,0,8.37-10.63l-2-55.62a10.46,10.46,0,0,0-7-9.5l-59.84-21.12-6.76-2.39a10.47,10.47,0,0,0-11.39,3l-5.8,6.7-30.65,35.36a10.46,10.46,0,0,0-.16,13.52l39.72,48a4.3,4.3,0,0,1,1,2.72v118.08a4.26,4.26,0,0,1-3.56,4.21l-36.72,6.12A3.56,3.56,0,0,0,414.48,1134.88Z"/><circle class="cls-3" cx="509.22" cy="1034.67" r="6.04"/><circle class="cls-7" cx="509.22" cy="1034.67" r="6.04"/><path class="cls-3" d="M533.18,1062.2a6,6,0,1,0,6-6A6,6,0,0,0,533.18,1062.2Z"/><path class="cls-7" d="M533.18,1062.2a6,6,0,1,0,6-6A6,6,0,0,0,533.18,1062.2Z"/><path class="cls-3" d="M392,1023.08a6,6,0,1,0-6-6A6,6,0,0,0,392,1023.08Z"/><path class="cls-7" d="M392,1023.08a6,6,0,1,0-6-6A6,6,0,0,0,392,1023.08Z"/><path class="cls-3" d="M561,1038.83a6,6,0,1,0-6-6A6,6,0,0,0,561,1038.83Z"/><path class="cls-7" d="M561,1038.83a6,6,0,1,0-6-6A6,6,0,0,0,561,1038.83Z"/><path class="cls-3" d="M500.33,1073.1a6,6,0,1,0,6,6A6,6,0,0,0,500.33,1073.1Z"/><path class="cls-7" d="M500.33,1073.1a6,6,0,1,0,6,6A6,6,0,0,0,500.33,1073.1Z"/><circle class="cls-3" cx="433.93" cy="1029.11" r="6.04"/><circle class="cls-7" cx="433.93" cy="1029.11" r="6.04"/><path class="cls-3" d="M576.33,1086.78a6,6,0,1,0-5.6-6.44A6,6,0,0,0,576.33,1086.78Z"/><path class="cls-7" d="M576.33,1086.78a6,6,0,1,0-5.6-6.44A6,6,0,0,0,576.33,1086.78Z"/><path class="cls-3" d="M535.22,1098a6,6,0,1,0,8.52.53A6,6,0,0,0,535.22,1098Z"/><path class="cls-7" d="M535.22,1098a6,6,0,1,0,8.52.53A6,6,0,0,0,535.22,1098Z"/><path class="cls-3" d="M420.71,1066.71a6,6,0,1,0,8.52.53A6,6,0,0,0,420.71,1066.71Z"/><path class="cls-7" d="M420.71,1066.71a6,6,0,1,0,8.52.53A6,6,0,0,0,420.71,1066.71Z"/><path class="cls-3" d="M740.94,695.87l45.39-22.47,45.39-22.47c16.53-8.18,22-20.39,9.27-20.55l-22.52-.3-34.36-.46c-10-.13-25.31,7.47-31.24,15.47l-20.48,27.6L719,690.77C711.37,701,724.41,704.05,740.94,695.87Z"/><path class="cls-3" d="M509.82,617.8l25.75,43.62c9.37,15.88,21.95,20.47,21.18,7.73l-1.36-22.48-2.08-34.31c-.6-9.93-9.31-24.68-17.72-30l-29-18.39-19-12.05c-10.79-6.83-12.84,6.4-3.47,22.28Z"/><path class="cls-4" d="M1014.7,445.49q1.44,7.31,2.77,15c10.69,62.5,14.85,145,7.07,251.22a201.35,201.35,0,0,0-28.28,19.69c-27.35,22.75-50,53.36-65,89.42-2.61,6.28-5,12.74-7.09,19.33a258.6,258.6,0,0,0-8.51,34.12c-19.72,110.79,35.05,214.76,124.4,244.25-61.45,58.21-157.4,112.57-272.36,153.36-117,41.52-241.87,64.61-352.85,66.08q-21.63.29-42.5-.55c-3.78-6.15-13.12-11.77-24.79-14.15-16.37-3.33-31.06,1-32.82,9.59s10.08,18.34,26.45,21.67c.32.07.64.11,1,.17v0l.2,0a53.93,53.93,0,0,0,11.86.86c16.53,1.13,33.5,1.93,50.41,1.93,2.27,0,4.55,0,6.82,0q12.44-.09,25-.55c233.72-8.35,500.39-106.52,625.63-232.74l.51.1c102.49,18.24,202.85-64.13,224.18-184a248.89,248.89,0,0,0-4.52-109.24,228.89,228.89,0,0,0-8.58-25.44c-12.57-31.06-31.63-58-55.67-78.28.26-19.86-.7-41-2.6-62.92-2.31-26.62-6-54.26-10.52-81.87-2-11.86-4-23.71-6.25-35.45-7.15-37.85-15.48-74.64-23.57-107.43a205.36,205.36,0,0,0-72.45-112.11A197.69,197.69,0,0,0,980,285.06c-21,.05-38.26,3.22-46.9,11.6a48.36,48.36,0,0,1,9.67,4.4C968.66,316.24,997.91,360.74,1014.7,445.49Z"/></svg>